<?xml version="1.0" encoding="utf-8"?>
<!-- Svg Vector Icons : http://www.onlinewebfonts.com/icon -->
<!DOCTYPE svg PUBLIC "-//W3C//DTD SVG 1.1//EN" "http://www.w3.org/Graphics/SVG/1.1/DTD/svg11.dtd">
<svg version="1.1" xmlns="http://www.w3.org/2000/svg" xmlns:xlink="http://www.w3.org/1999/xlink" x="0px" y="0px" viewBox="0 0 1000 1000" enable-background="new 0 0 1000 1000" xml:space="preserve">
<metadata> Svg Vector Icons : http://www.onlinewebfonts.com/icon </metadata>
<g><path d="M500,10C229.8,10,10,229.8,10,500c0,270.2,219.8,490,490,490c270.2,0,490-219.8,490-490C990,229.8,770.2,10,500,10z M500,929.7C263.1,929.7,70.3,736.9,70.3,500S263.1,70.3,500,70.3c236.9,0,429.7,192.7,429.7,429.7S736.9,929.7,500,929.7z"/><path d="M600.3,134c-7.9-2.1-16.3,2.5-18.5,10.6c-2.2,8.1,2.5,16.3,10.6,18.5C743.6,204.5,849.2,343,849.2,500c0,8.3,6.7,15.1,15.1,15.1s15.1-6.7,15.1-15.1C879.4,329.4,764.6,179,600.3,134z"/><path d="M500,150.8c6.5,0,13,0.2,19.5,0.5c0.3,0,0.6,0,0.9,0c7.9,0,14.6-6.2,15-14.3c0.5-8.3-5.9-15.4-14.2-15.9c-7-0.4-14.1-0.6-21.1-0.6c-8.3,0-15.1,6.7-15.1,15.1C484.9,144,491.7,150.8,500,150.8z"/><path d="M589.7,423.2l0.7,54.4c0.3,18.1,14.7,31.7,33.6,31.7c7,0,13.9-1.9,20.2-5.7l113-69.9c10.4-6.2,16.4-15.7,16.2-26.1c-0.1-11-7-21.1-18.4-27.6l-112.6-67.3c-14.5-8.1-34.1-5.7-44.9,5.2c-5.9,5.9-9,13.9-8.9,22.4l0.7,52.5c-29.7,1.1-92.8,14-145.5,95.6c-23.2-59.7-57.2-99.9-101.5-119.3c-66.3-29-129.9-0.1-132.6,1.1c-7.5,3.5-10.8,12.5-7.3,20c3.5,7.5,12.4,10.8,20,7.3c0.5-0.3,53.8-24.5,107.8-0.9c41.1,18,72.3,59.2,92.6,122.3c0.5,1.4,1,2.6,1.5,4c-0.2,0.4-0.4,0.9-0.7,1.3c-80.3,165-197.3,124.8-202.2,123c-7.8-2.8-16.5,1.1-19.4,8.9c-2.9,7.8,1.1,16.5,8.9,19.4c0.5,0.2,19.1,6.8,47.1,6.8c47.8,0,122.8-19.3,181.4-123.1c42.6,82.8,112,94.1,146.5,94.1c1.3,0,2.3-0.1,3.4-0.1l-0.7,51.8c-0.1,8.5,3,16.5,8.9,22.4c6.4,6.5,15.7,10.3,25.6,10.3c6.7,0,13.4-1.7,19.6-5.2L754.6,666c11.8-6.6,18.7-16.7,18.8-27.8c0.1-10.3-5.8-19.9-16-25.9l-113.5-70.1c-6.1-3.6-13-5.5-20-5.5c-18.9,0-33.3,13.6-33.6,31.8l-0.7,55.5c-26.9,1.5-95.8-4.6-132.5-98C505.1,437,564.8,424.3,589.7,423.2z M623.1,338.1c1.1,0,2.8,0.2,4.1,0.9l112.6,67.3c0.9,0.5,1.6,1,2.2,1.4c-0.2,0.1-0.3,0.2-0.5,0.3l-113,69.9c-5.6,3.3-7.9,1.3-7.9-0.7l-1.6-138C619.6,338.7,621.1,338.1,623.1,338.1z M620.6,568.8c0-1.3,1.2-2,3.4-2c1.1,0,2.7,0.2,4.3,1.2l113.5,70.1c0.1,0.1,0.2,0.1,0.3,0.1c-0.6,0.5-1.4,1-2.5,1.6l-111.9,66.9c-4.8,2.6-7.6,1.3-8.9-0.9L620.6,568.8z"/></g>
</svg>